# xmcd
#
# Track frame offsets: 
#        150
#        15461
#        30317
#        41774
#        54301
#        71813
#        79591
#        92069
#        107543
#        121806
#        130999
#        143518
#
# Disc length: 2055 seconds
#
# Revision: 4
# Processed by: cddbd v1.5.2PL0 Copyright (c) Steve Scherf et al.
# Submitted via: ExactAudioCopy v1.0b3
#
DISCID=9008050c
DTITLE=Johnny Cash - The Cash Collection [CD 1)
DYEAR=2011
DGENRE=Country
TTITLE0=A Backstage Pass
TTITLE1=Cat's In The Cradle
TTITLE2=I Walk The Line
TTITLE3=Folsom Prison Blues
TTITLE4=Sunday Morning Coming Down
TTITLE5=Five Feet High And Rising
TTITLE6=Sixteen Tons
TTITLE7=Johnny Cash, June Carter Cash - Call Me The Breeze
TTITLE8=I'd Rather Have You
TTITLE9=Blue Train
TTITLE10=Johnny Cash, Rosanne Cash, The Everly Brothers - Ballad Of A 
TTITLE10=Teen Queen
TTITLE11=Supper Time
EXTD=
EXTT0=
EXTT1=
EXTT2=
EXTT3=
EXTT4=
EXTT5=
EXTT6=
EXTT7=
EXTT8=
EXTT9=
EXTT10=
EXTT11=
PLAYORDER=
